<svg width="64" height="64" viewBox="0 0 64 64" fill="none" xmlns="http://www.w3.org/2000/svg">
<rect width="64" height="64" rx="32" fill="#F42A2A"/>
<path d="M5 35.5054C5 37.7563 5.67347 39.7435 7 41.5077C8.32653 43.2719 10.0816 44.4683 12.2449 45.1172L10.9388 48.5644C10.8571 48.8483 10.9388 48.9902 11.2245 48.9902H15.5714L13.0204 57H13.6122L22.1224 46.0702C22.2041 45.9891 22.2041 45.8877 22.1429 45.7863C22.102 45.6849 22 45.6444 21.8571 45.6444H17.4286L22.4694 36.2557C22.6122 35.9718 22.5102 35.8096 22.1837 35.8096H16.1837C16 35.8096 15.8367 35.911 15.7143 36.0935L13.5306 41.9335C12.0816 41.5685 10.8776 40.7777 9.91837 39.5813C8.95918 38.3849 8.4898 37.0263 8.4898 35.5054C8.4898 33.8224 9.06122 32.3624 10.2245 31.1051C11.3878 29.8479 12.8163 29.1382 14.5102 28.9354L15.5714 28.8137C15.8367 28.8137 15.9796 28.6921 15.9796 28.4487L16.102 27.4146C16.3265 25.2246 17.2653 23.3793 18.9184 21.899C20.5714 20.4187 22.5306 19.6684 24.7551 19.6684C26.9796 19.6684 28.9184 20.4187 30.5714 21.899C32.2245 23.3793 33.1837 25.2246 33.4286 27.4146L33.551 28.5907C33.551 28.8137 33.6735 28.9354 33.9184 28.9354H37.2041C39.0612 28.9354 40.6327 29.5843 41.9388 30.8618C43.2449 32.1393 43.898 33.6804 43.898 35.5054C43.898 37.2291 43.2857 38.7296 42.0816 39.9869C40.8776 41.2441 39.3878 41.9538 37.6122 42.0958C37.3469 42.0958 37.2041 42.2174 37.2041 42.4608V45.2388C37.2041 45.4619 37.3469 45.5836 37.6122 45.5836C40.3265 45.5024 42.6327 44.4683 44.5306 42.5216C46.4286 40.5749 47.3673 38.243 47.3673 35.5257C47.3673 34.0252 47.0816 32.6665 46.4898 31.4499C48.102 29.5032 48.898 27.2726 48.898 24.7176C48.898 22.8115 48.4082 21.0473 47.449 19.4048C46.4898 17.7623 45.1837 16.4645 43.5306 15.5115C41.8775 14.5584 40.102 14.0717 38.1837 14.0717C35.0408 14.0717 32.3878 15.2478 30.2653 17.5798C28.6122 16.7078 26.7755 16.2617 24.7551 16.2617C21.8776 16.2617 19.3061 17.154 17.0816 18.9181C14.8571 20.6823 13.4286 22.9534 12.7959 25.7315C10.5306 26.2587 8.67347 27.4146 7.22449 29.2396C5.77551 31.0646 5 33.1735 5 35.5054ZM21.5102 54.9317C21.4898 55.2358 21.5714 55.54 21.7959 55.8239C22.0204 56.1078 22.3265 56.3308 22.7347 56.4931C22.8776 56.5336 23.0204 56.5539 23.1633 56.5539C23.5102 56.5539 23.8571 56.4525 24.2041 56.2497C24.551 56.0469 24.7755 55.7225 24.898 55.2967L29.5714 37.9185C29.6939 37.4521 29.6531 37.006 29.4286 36.6207C29.2041 36.2152 28.8775 35.9516 28.4286 35.8096C27.9592 35.6677 27.5102 35.7082 27.102 35.9516C26.6939 36.1746 26.4082 36.5193 26.2857 36.9857L21.5714 54.4247C21.5306 54.5667 21.5102 54.7492 21.5102 54.9317ZM22.1837 10.6245C22.1837 11.1112 22.3469 11.4964 22.6939 11.8209L24 13.1592C24.3469 13.5039 24.7551 13.6662 25.2449 13.6864C25.7347 13.6864 26.1224 13.5242 26.4082 13.1592C26.7959 12.8551 26.9796 12.4495 26.9796 11.9425C26.9796 11.4559 26.8163 11.0706 26.4694 10.7462L25.1837 9.40781C24.8367 9.08337 24.4082 8.92114 23.9388 8.92114C23.4286 8.92114 23 9.08337 22.6735 9.40781C22.3469 9.73226 22.1837 10.1378 22.1837 10.6245ZM30 48.7469C30 48.9902 30.0816 49.2336 30.2245 49.5175C30.4898 49.923 30.8163 50.2069 31.2449 50.3894C31.3878 50.4502 31.5918 50.4908 31.8571 50.4908C32.1633 50.4908 32.3878 50.4502 32.5306 50.3691C32.9388 50.2069 33.2245 49.8013 33.3673 49.193L36.4082 37.9388C36.5306 37.4521 36.4898 37.0263 36.2653 36.6207C36.0408 36.2354 35.6939 35.9718 35.2245 35.8299C34.7551 35.6879 34.3061 35.7285 33.9184 35.9718C33.5102 36.1949 33.2449 36.5396 33.1225 37.006L30.0612 48.2805C30.0612 48.3211 30.0408 48.4022 30.0204 48.5036C30 48.6252 30 48.6861 30 48.7469ZM33.1225 19.567C34.4898 18.2692 36.1633 17.6001 38.1837 17.6001C40.1633 17.6001 41.8776 18.2895 43.2857 19.6684C44.6939 21.0473 45.4082 22.7304 45.4082 24.6973C45.4082 25.9546 45.0612 27.2118 44.3469 28.4487C42.3265 26.4615 39.9388 25.4679 37.2041 25.4679H36.5714C35.9388 23.0954 34.7755 21.1284 33.1225 19.567ZM36.4082 8.92114C36.4082 9.38753 36.5918 9.79309 36.9388 10.1378C37.2857 10.4825 37.6939 10.665 38.1633 10.665C38.6531 10.665 39.0408 10.5028 39.3673 10.1581C39.6939 9.81337 39.8367 9.40781 39.8367 8.92114V4.7439C39.8367 4.25723 39.6735 3.85167 39.3673 3.50695C39.0612 3.16222 38.6531 3 38.1633 3C37.6939 3 37.2857 3.16222 36.9388 3.50695C36.5918 3.85167 36.4082 4.25723 36.4082 4.7439V8.92114ZM47.6939 13.5445C47.6939 14.0312 47.8776 14.4367 48.2245 14.7612C48.5102 15.1059 48.898 15.2681 49.3878 15.2681C49.8776 15.2681 50.2857 15.1059 50.6122 14.7612L53.551 11.8209C53.898 11.4964 54.0816 11.1112 54.0816 10.6245C54.0816 10.1378 53.9184 9.73226 53.5714 9.38753C53.2245 9.04281 52.8163 8.88059 52.3265 8.88059C51.8775 8.88059 51.4898 9.06309 51.1633 9.40781L48.2245 12.3278C47.8776 12.6523 47.6939 13.0578 47.6939 13.5445ZM49.3469 37.5941C49.3469 38.0402 49.5102 38.4457 49.8367 38.8107L51.1837 40.0882C51.4286 40.3721 51.8163 40.5546 52.2857 40.5749L52.3061 40.5952C52.3265 40.5952 52.3673 40.5952 52.4082 40.5952C52.449 40.5952 52.4694 40.5952 52.5102 40.5952C52.898 40.5952 53.2449 40.4127 53.5918 40.068C53.9388 39.7435 54.1224 39.338 54.1224 38.8513C54.1224 38.3849 53.9388 37.9793 53.5918 37.6143L52.2653 36.3774C51.9388 36.0124 51.5306 35.8299 51.0816 35.8299C50.6122 35.8299 50.2041 35.9921 49.8571 36.3368C49.5102 36.7018 49.3469 37.1277 49.3469 37.5941ZM52.3061 24.7176C52.3061 25.184 52.4898 25.5896 52.8571 25.9343C53.2245 26.2993 53.6327 26.4818 54.102 26.4818H58.2449C58.7143 26.4818 59.1224 26.2993 59.4694 25.9546C59.8163 25.6098 60 25.184 60 24.7176C60 24.2512 59.8367 23.8457 59.4898 23.5212C59.1429 23.1968 58.7347 23.0345 58.2449 23.0345H54.102C53.5918 23.0345 53.1633 23.1968 52.8163 23.5212C52.4694 23.8457 52.3061 24.2512 52.3061 24.7176Z" fill="white"/>
</svg>
